HIERARCHY
ROOT Hips
{
	OFFSET 0.000000 105.849998 0.000017
	CHANNELS 6 Xposition Yposition Zposition Yrotation Xrotation Zrotation
	JOINT RightUpLeg
	{
		OFFSET -11.500000 -1.849998 -0.000000
		CHANNELS 3 Yrotation Xrotation Zrotation
		JOINT RightLeg
		{
			OFFSET 0.000000 -48.000000 -0.000008
			CHANNELS 3 Yrotation Xrotation Zrotation
			JOINT RightFoot
			{
				OFFSET 0.000000 -48.000000 -0.000008
				CHANNELS 3 Yrotation Xrotation Zrotation
				End Site
				{
					OFFSET 0.000000 -8.000003 19.599998
				}
			}
		}
	}
	JOINT LeftUpLeg
	{
		OFFSET 11.500000 -1.849998 -0.000000
		CHANNELS 3 Yrotation Xrotation Zrotation
		JOINT LeftLeg
		{
			OFFSET 0.000000 -48.000000 -0.000008
			CHANNELS 3 Yrotation Xrotation Zrotation
			JOINT LeftFoot
			{
				OFFSET 0.000000 -48.000000 -0.000008
				CHANNELS 3 Yrotation Xrotation Zrotation
				End Site
				{
					OFFSET 0.000000 -8.000003 19.599998
				}
			}
		}
	}
	JOINT Spine
	{
		OFFSET 0.000000 16.653999 0.000003
		CHANNELS 3 Yrotation Xrotation Zrotation
		JOINT Spine1
		{
			OFFSET 0.000000 11.311996 0.000002
			CHANNELS 3 Yrotation Xrotation Zrotation
			JOINT Spine2
			{
				OFFSET 0.000000 11.779999 0.000002
				CHANNELS 3 Yrotation Xrotation Zrotation
				JOINT Spine3
				{
					OFFSET 0.000000 11.311996 0.000002
					CHANNELS 3 Yrotation Xrotation Zrotation
					JOINT Neck
					{
						OFFSET 0.000000 12.091003 0.000002
						CHANNELS 3 Yrotation Xrotation Zrotation
						JOINT Head
						{
							OFFSET 0.000000 9.000000 0.000001
							CHANNELS 3 Yrotation Xrotation Zrotation
							End Site
							{
								OFFSET 0.000000 18.000000 0.000003
							}
						}
					}
					JOINT RightShoulder
					{
						OFFSET -3.500000 8.061005 0.000001
						CHANNELS 3 Yrotation Xrotation Zrotation
						JOINT RightArm
						{
							OFFSET -14.000000 0.000000 -0.000000
							CHANNELS 3 Yrotation Xrotation Zrotation
							JOINT RightForeArm
							{
								OFFSET -29.000000 0.000000 -0.000000
								CHANNELS 3 Yrotation Xrotation Zrotation
								JOINT RightHand
								{
									OFFSET -28.000000 0.000000 -0.000000
									CHANNELS 3 Yrotation Xrotation Zrotation
									JOINT RightHandThumb1
									{
										OFFSET -2.702003 0.205994 3.388000
										CHANNELS 3 Yrotation Xrotation Zrotation
										JOINT RightHandThumb2
										{
											OFFSET -3.998001 0.000000 -0.000000
											CHANNELS 3 Yrotation Xrotation Zrotation
											JOINT RightHandThumb3
											{
												OFFSET -2.778000 0.000000 -0.000000
												CHANNELS 3 Yrotation Xrotation Zrotation
												End Site
												{
													OFFSET -2.381996 0.000000 -0.000000
												}
											}
										}
									}
									JOINT RightInHandIndex
									{
										OFFSET -3.500000 0.552002 2.148000
										CHANNELS 3 Yrotation Xrotation Zrotation
										JOINT RightHandIndex1
										{
											OFFSET -5.664001 -0.098999 1.085000
											CHANNELS 3 Yrotation Xrotation Zrotation
											JOINT RightHandIndex2
											{
												OFFSET -3.930000 0.000000 -0.000000
												CHANNELS 3 Yrotation Xrotation Zrotation
												JOINT RightHandIndex3
												{
													OFFSET -2.227997 0.000000 -0.000000
													CHANNELS 3 Yrotation Xrotation Zrotation
													End Site
													{
														OFFSET -1.959999 0.000000 -0.000000
													}
												}
											}
										}
									}
									JOINT RightInHandMiddle
									{
										OFFSET -3.671997 0.561996 0.822000
										CHANNELS 3 Yrotation Xrotation Zrotation
										JOINT RightHandMiddle1
										{
											OFFSET -5.617996 -0.091003 0.341000
											CHANNELS 3 Yrotation Xrotation Zrotation
											JOINT RightHandMiddle2
											{
												OFFSET -4.288002 0.000000 -0.000000
												CHANNELS 3 Yrotation Xrotation Zrotation
												JOINT RightHandMiddle3
												{
													OFFSET -2.688004 0.000000 -0.000000
													CHANNELS 3 Yrotation Xrotation Zrotation
													End Site
													{
														OFFSET -2.143997 0.000000 -0.000000
													}
												}
											}
										}
									}
									JOINT RightInHandRing
									{
										OFFSET -3.653999 0.584000 -0.140000
										CHANNELS 3 Yrotation Xrotation Zrotation
										JOINT RightHandRing1
										{
											OFFSET -5.031998 -0.024002 -0.520000
											CHANNELS 3 Yrotation Xrotation Zrotation
											JOINT RightHandRing2
											{
												OFFSET -3.737000 0.000000 -0.000000
												CHANNELS 3 Yrotation Xrotation Zrotation
												JOINT RightHandRing3
												{
													OFFSET -2.593002 0.000000 -0.000000
													CHANNELS 3 Yrotation Xrotation Zrotation
													End Site
													{
														OFFSET -2.015999 0.000000 -0.000000
													}
												}
											}
										}
									}
									JOINT RightInHandPinky
									{
										OFFSET -3.431999 0.509995 -1.305000
										CHANNELS 3 Yrotation Xrotation Zrotation
										JOINT RightHandPinky1
										{
											OFFSET -4.496002 -0.024002 -1.184000
											CHANNELS 3 Yrotation Xrotation Zrotation
											JOINT RightHandPinky2
											{
												OFFSET -2.993004 0.000000 -0.000000
												CHANNELS 3 Yrotation Xrotation Zrotation
												JOINT RightHandPinky3
												{
													OFFSET -1.890999 0.000000 -0.000000
													CHANNELS 3 Yrotation Xrotation Zrotation
													End Site
													{
														OFFSET -1.786003 0.000000 -0.000000
													}
												}
											}
										}
									}
								}
							}
						}
					}
					JOINT LeftShoulder
					{
						OFFSET 3.500000 8.061005 0.000001
						CHANNELS 3 Yrotation Xrotation Zrotation
						JOINT LeftArm
						{
							OFFSET 14.000000 0.000000 -0.000000
							CHANNELS 3 Yrotation Xrotation Zrotation
							JOINT LeftForeArm
							{
								OFFSET 29.000000 0.000000 -0.000000
								CHANNELS 3 Yrotation Xrotation Zrotation
								JOINT LeftHand
								{
									OFFSET 28.000000 0.000000 -0.000000
									CHANNELS 3 Yrotation Xrotation Zrotation
									JOINT LeftHandThumb1
									{
										OFFSET 2.702003 0.205994 3.388000
										CHANNELS 3 Yrotation Xrotation Zrotation
										JOINT LeftHandThumb2
										{
											OFFSET 3.998001 0.000000 -0.000000
											CHANNELS 3 Yrotation Xrotation Zrotation
											JOINT LeftHandThumb3
											{
												OFFSET 2.778000 0.000000 -0.000000
												CHANNELS 3 Yrotation Xrotation Zrotation
												End Site
												{
													OFFSET 2.381996 0.000000 -0.000000
												}
											}
										}
									}
									JOINT LeftInHandIndex
									{
										OFFSET 3.500000 0.552002 2.148000
										CHANNELS 3 Yrotation Xrotation Zrotation
										JOINT LeftHandIndex1
										{
											OFFSET 5.664001 -0.098999 1.085000
											CHANNELS 3 Yrotation Xrotation Zrotation
											JOINT LeftHandIndex2
											{
												OFFSET 3.930000 0.000000 -0.000000
												CHANNELS 3 Yrotation Xrotation Zrotation
												JOINT LeftHandIndex3
												{
													OFFSET 2.227997 0.000000 -0.000000
													CHANNELS 3 Yrotation Xrotation Zrotation
													End Site
													{
														OFFSET 1.959999 0.000000 -0.000000
													}
												}
											}
										}
									}
									JOINT LeftInHandMiddle
									{
										OFFSET 3.671997 0.561996 0.822000
										CHANNELS 3 Yrotation Xrotation Zrotation
										JOINT LeftHandMiddle1
										{
											OFFSET 5.617996 -0.091003 0.341000
											CHANNELS 3 Yrotation Xrotation Zrotation
											JOINT LeftHandMiddle2
											{
												OFFSET 4.288002 0.000000 -0.000000
												CHANNELS 3 Yrotation Xrotation Zrotation
												JOINT LeftHandMiddle3
												{
													OFFSET 2.688004 0.000000 -0.000000
													CHANNELS 3 Yrotation Xrotation Zrotation
													End Site
													{
														OFFSET 2.143997 0.000000 -0.000000
													}
												}
											}
										}
									}
									JOINT LeftInHandRing
									{
										OFFSET 3.653999 0.584000 -0.140000
										CHANNELS 3 Yrotation Xrotation Zrotation
										JOINT LeftHandRing1
										{
											OFFSET 5.031998 -0.024002 -0.520000
											CHANNELS 3 Yrotation Xrotation Zrotation
											JOINT LeftHandRing2
											{
												OFFSET 3.737000 0.000000 -0.000000
												CHANNELS 3 Yrotation Xrotation Zrotation
												JOINT LeftHandRing3
												{
													OFFSET 2.593002 0.000000 -0.000000
													CHANNELS 3 Yrotation Xrotation Zrotation
													End Site
													{
														OFFSET 2.015999 0.000000 -0.000000
													}
												}
											}
										}
									}
									JOINT LeftInHandPinky
									{
										OFFSET 3.431999 0.509995 -1.305000
										CHANNELS 3 Yrotation Xrotation Zrotation
										JOINT LeftHandPinky1
										{
											OFFSET 4.496002 -0.024002 -1.184000
											CHANNELS 3 Yrotation Xrotation Zrotation
											JOINT LeftHandPinky2
											{
												OFFSET 2.993004 0.000000 -0.000000
												CHANNELS 3 Yrotation Xrotation Zrotation
												JOINT LeftHandPinky3
												{
													OFFSET 1.890999 0.000000 -0.000000
													CHANNELS 3 Yrotation Xrotation Zrotation
													End Site
													{
														OFFSET 1.786003 0.000000 -0.000000
													}
												}
											}
										}
									}
								}
							}
						}
					}
				}
			}
		}
	}
}
MOTION
Frames: 5
Frame Time: 0.041667
0.000000 -0.000001 50.759941 -0.304360 2.649862 -6.554600 -1.747064 11.931009 3.610676 0.257657 11.024553 -0.585727 3.368792 -2.953667 2.323223 0.934921 -25.817874 9.534602 -0.225437 9.349916 0.499416 -2.608882 -17.000985 -4.010253 0.237893 -0.010622 5.113268 0.000000 0.000000 -0.000000 0.000000 0.000000 -0.000000 0.000000 0.000000 -0.000000 0.049847 -0.000459 1.070056 0.000000 -3.131922 -0.000007 -40.364687 -5.681139 6.897074 -37.353973 -10.739108 4.331902 -23.679272 -15.160607 20.047802 -4.599370 -2.936901 12.002675 0.000003 0.000000 0.000005 -0.000005 0.000002 -0.000002 0.000000 0.000002 0.000002 -0.000003 -0.000000 0.000004 0.000004 -0.000001 0.000008 0.000005 0.000001 -0.000001 -0.000003 -0.000001 -0.000002 0.000005 0.000001 0.000007 0.000002 0.000001 -0.000005 0.000002 0.000001 -0.000001 0.000004 -0.000001 0.000004 0.000000 0.000002 0.000004 0.000003 0.000000 0.000003 0.000003 -0.000001 0.000002 0.000002 -0.000004 0.000001 -0.000001 0.000000 0.000008 0.000002 -0.000003 0.000002 0.000003 0.000000 -0.000000 -0.000000 0.000000 -0.000000 40.993890 5.571610 6.895781 37.038538 8.573971 2.019392 20.792235 14.310655 5.534089 0.000055 0.000018 -0.000000 0.000002 0.000001 -0.000003 0.000002 0.000002 0.000000 -0.000006 -0.000001 0.000002 -0.000016 -0.000004 0.000000 0.000001 0.000001 -0.000002 -0.000000 0.000000 0.000001 0.000002 0.000000 0.000001 -0.000011 0.000001 -0.000003 -0.000002 -0.000001 0.000000 -0.000002 -0.000001 0.000001 -0.000006 -0.000001 0.000002 -0.000006 0.000003 0.000000 0.000004 -0.000002 -0.000000 0.000003 -0.000000 -0.000001 -0.000003 0.000002 -0.000000 0.000005 0.000006 -0.000002 -0.000001 0.000002 -0.000003 0.000001 -0.000000 0.000001 -0.000006 0.000000 -0.000000 
-0.000000 -0.000000 50.433022 -0.290833 2.651214 -6.262530 -1.987059 10.050555 3.398199 0.352045 16.920979 -0.888704 3.433612 -2.458791 2.285436 0.621080 -28.605362 9.141350 -0.353191 17.005242 0.894800 -4.158249 3.789672 -3.678668 0.228271 -0.009485 4.885169 -0.000000 0.000000 -0.000000 -0.000000 0.000000 -0.000000 -0.000000 0.000000 -0.000000 0.047634 -0.000459 1.022544 0.000000 -3.131922 -0.000006 -40.319761 -5.432046 6.587016 -37.323009 -10.310845 4.186635 -23.468371 -14.538640 19.445917 -3.724530 -5.263169 12.783041 -0.000000 -0.000001 -0.000003 -0.000003 -0.000002 -0.000003 -0.000001 0.000003 0.000001 -0.000005 -0.000005 -0.000006 0.000004 -0.000003 0.000003 0.000007 -0.000002 -0.000003 0.000000 -0.000001 0.000000 0.000002 -0.000003 -0.000002 0.000003 -0.000002 0.000001 0.000001 0.000000 -0.000002 0.000001 0.000000 -0.000002 0.000000 -0.000005 -0.000005 0.000000 0.000004 0.000000 0.000004 0.000002 0.000001 0.000003 -0.000003 -0.000001 -0.000005 -0.000003 0.000000 0.000000 0.000003 -0.000004 0.000005 0.000002 -0.000000 0.000001 0.000000 0.000001 40.920886 5.325814 6.585849 37.022115 8.144939 1.877381 20.711806 13.660796 4.966815 0.100996 2.367883 0.532645 0.000000 0.000004 -0.000001 0.000001 0.000003 -0.000000 -0.000007 -0.000002 0.000000 -0.000016 -0.000005 0.000000 -0.000001 0.000000 -0.000002 0.000001 -0.000000 0.000001 0.000002 -0.000000 -0.000000 -0.000012 0.000003 -0.000000 -0.000002 0.000000 0.000000 -0.000003 -0.000004 0.000001 -0.000007 -0.000001 0.000000 -0.000007 -0.000001 0.000001 0.000004 -0.000004 -0.000003 0.000003 -0.000000 0.000001 -0.000003 0.000002 0.000000 0.000006 0.000002 -0.000001 0.000000 0.000002 0.000001 -0.000000 -0.000001 0.000000 -0.000007 -0.000003 0.000001 
0.000000 -0.000001 49.733482 -0.249311 2.654161 -5.366668 -2.381301 7.493581 2.630417 0.442591 27.050624 -1.415318 3.701640 2.398563 2.200897 0.659447 -31.398974 7.906700 -0.447295 28.398364 1.502251 -4.050857 -0.097817 -3.331427 0.194836 -0.007119 4.185970 -0.000000 0.000000 0.000000 -0.000000 0.000000 0.000000 -0.000000 0.000000 0.000000 0.040840 -0.000459 0.876687 0.000000 -3.131922 -0.000006 -40.197624 -4.665799 5.638153 -37.235261 -8.995760 3.743343 -22.864347 -12.609876 17.616473 -1.966257 -10.360564 14.202162 0.000000 0.000003 -0.000002 -0.000004 -0.000002 -0.000004 -0.000001 -0.000001 -0.000001 -0.000004 -0.000002 -0.000008 0.000004 0.000001 -0.000004 0.000008 0.000001 -0.000003 -0.000001 -0.000005 0.000001 0.000002 0.000002 0.000001 0.000000 0.000002 -0.000005 -0.000001 0.000001 -0.000002 -0.000000 0.000000 0.000000 0.000004 -0.000001 -0.000004 0.000000 0.000003 -0.000003 0.000001 -0.000002 -0.000000 0.000002 0.000002 0.000000 -0.000003 -0.000000 -0.000004 -0.000001 -0.000005 0.000003 0.000003 -0.000004 0.000001 -0.000001 -0.000003 0.000002 40.713334 4.568700 5.637376 36.978593 6.827739 1.443073 20.506600 11.654628 3.234178 0.472366 7.523225 1.531542 0.000002 -0.000003 -0.000003 0.000003 0.000001 -0.000001 -0.000007 -0.000003 -0.000000 -0.000014 -0.000005 -0.000001 0.000001 0.000001 -0.000002 -0.000000 0.000003 -0.000000 0.000001 0.000001 -0.000000 -0.000011 0.000000 -0.000005 -0.000002 0.000000 0.000001 -0.000001 0.000001 0.000001 -0.000005 0.000002 0.000001 -0.000005 -0.000003 -0.000003 0.000003 -0.000000 0.000002 0.000002 0.000001 0.000001 -0.000005 0.000000 -0.000001 0.000005 -0.000000 -0.000001 -0.000001 -0.000001 0.000001 -0.000001 -0.000002 0.000001 -0.000006 -0.000003 -0.000000 
0.000000 -0.000000 49.406578 -0.197021 2.657456 -4.239621 -2.709883 5.639623 1.606656 0.446382 33.753589 -1.783811 4.045851 10.112268 2.156767 1.331619 -30.508331 6.358949 -0.447257 34.351402 1.822451 -3.704148 -6.905593 -3.036481 0.153953 -0.004060 3.306523 -0.000000 -0.000000 0.000000 -0.000000 -0.000000 0.000000 -0.000000 -0.000000 0.000000 0.032280 -0.000459 0.692921 0.000000 -3.131922 -0.000005 -40.080428 -3.697768 4.448694 -37.140677 -7.338526 3.189977 -22.195630 -10.142905 15.347657 -1.236940 -12.947444 14.432975 0.000002 0.000000 0.000003 -0.000003 0.000002 -0.000001 0.000003 0.000000 -0.000001 -0.000003 -0.000004 -0.000000 0.000003 0.000001 0.000001 0.000004 0.000003 -0.000002 -0.000002 0.000003 -0.000004 0.000003 0.000002 0.000002 -0.000001 -0.000001 -0.000001 0.000000 0.000002 -0.000003 0.000003 0.000000 -0.000002 0.000003 0.000002 0.000003 0.000002 0.000005 0.000003 0.000002 -0.000000 -0.000001 0.000004 -0.000000 -0.000002 0.000000 -0.000000 0.000001 0.000001 0.000002 0.000000 0.000005 -0.000001 0.000005 -0.000001 -0.000003 -0.000000 40.487913 3.610180 4.448260 36.938175 5.168330 0.898982 20.336902 9.107510 1.066724 0.876546 10.147056 1.589202 0.000002 0.000002 -0.000002 -0.000000 0.000000 0.000000 -0.000008 0.000001 -0.000000 -0.000014 -0.000002 -0.000002 -0.000001 0.000004 0.000002 0.000001 0.000003 0.000001 0.000001 0.000001 0.000001 -0.000011 -0.000000 -0.000002 -0.000002 -0.000005 -0.000001 -0.000000 -0.000001 0.000001 -0.000005 0.000002 0.000002 -0.000007 0.000002 0.000001 0.000003 0.000002 0.000001 0.000001 -0.000000 0.000000 -0.000005 -0.000001 -0.000001 0.000005 -0.000000 0.000004 0.000001 0.000001 0.000001 0.000000 0.000002 0.000001 -0.000006 0.000001 0.000000 
0.000000 -0.000000 49.805565 -0.139419 2.660105 -2.999243 -3.251728 -1.939333 0.761470 0.350595 43.292737 -2.371570 4.533727 20.857361 2.208039 2.203799 -26.478048 4.860365 -0.446923 33.749071 1.785825 -3.483996 -10.288344 -2.880667 0.108932 -0.002229 2.338932 -0.000000 0.000000 -0.000000 -0.000000 0.000000 -0.000000 -0.000000 0.000000 -0.000000 0.022845 -0.000459 0.490392 0.000000 -3.131922 -0.000003 -39.997765 -2.628524 3.143952 -37.054893 -5.511756 2.585577 -21.575919 -7.384032 12.887303 -1.421779 -10.767508 12.546415 0.000003 -0.000001 0.000003 -0.000005 0.000002 -0.000004 -0.000001 0.000000 -0.000002 -0.000004 -0.000002 0.000004 0.000003 0.000000 0.000004 0.000005 -0.000000 0.000000 -0.000002 0.000000 -0.000002 0.000004 -0.000001 0.000002 -0.000002 0.000001 0.000000 -0.000001 -0.000002 0.000002 0.000001 0.000002 0.000003 0.000003 0.000000 0.000003 -0.000001 -0.000001 0.000001 0.000003 0.000000 0.000001 0.000001 0.000002 0.000002 -0.000003 -0.000002 0.000005 0.000001 -0.000004 -0.000001 0.000004 -0.000001 -0.000001 -0.000002 0.000000 -0.000002 40.286327 2.548835 3.143761 36.912077 3.339757 0.302238 20.263344 6.282426 -1.309034 1.134698 7.914360 -0.147975 0.000002 0.000001 -0.000000 0.000003 -0.000000 -0.000000 -0.000007 -0.000003 -0.000001 -0.000015 -0.000003 -0.000001 -0.000001 -0.000001 -0.000001 0.000001 -0.000001 -0.000001 0.000001 0.000000 0.000000 -0.000011 -0.000001 -0.000001 -0.000002 -0.000005 0.000000 0.000000 -0.000002 0.000000 -0.000004 -0.000002 0.000000 -0.000007 -0.000003 -0.000002 0.000003 -0.000001 -0.000000 0.000004 -0.000002 -0.000000 -0.000004 -0.000000 -0.000000 0.000005 -0.000000 0.000003 -0.000001 -0.000002 -0.000001 0.000000 -0.000003 -0.000000 -0.000005 -0.000003 -0.000000 
